Coordinates
version=1
nRows=8
nColumns=33
inDegrees=yes

Units are S.I. units (second, meters, Newtons, ...)
Angles are in degrees.

endheader
time	ground_thorax_rot_x	ground_thorax_rot_y	ground_thorax_rot_z	ground_thorax_tx	ground_thorax_ty	ground_thorax_tz	clav_prot_r	clav_elev_r	scapula_abduction_r	scapula_elevation_r	scapula_upward_rot_r	scapula_winging_r	shoulder_elv_r	plane_of_elev_r	axial_rot_r	elbow_flexion_r	pro_sup_r	wrist_flex_r	wrist_dev_r	clav_prot_l	clav_elev_l	scapula_abduction_l	scapula_elevation_l	scapula_upward_rot_l	scapula_winging_l	shoulder_elv_l	plane_of_elev_l	axial_rot_l	elbow_flexion_l	pro_sup_l	wrist_flex_l	wrist_dev_l
      7.40000000	     37.07706063	      8.29611369	     10.01053484	    -70.16827014	    769.97225709	      9.35818321	     16.93888732	     37.36533264	     45.00000000	     38.57612973	    -25.22282956	  -2241.22471011	  -1195.23942365	    144.95928760	    179.99999979	   2167.23872629	     52.90383970	     21.67709930	     13.09937449	      5.03712117	    -45.00000000	    -45.00000000	     45.00000000	    -28.19399641	   2243.04840779	  -3338.88623225	    134.73118322	   -179.99999979	    365.01620625	   -322.37442913	      9.66085157	    -19.66645772
      7.41000000	     37.09303720	      8.06417735	      9.76504007	    -70.68322768	    769.98642709	      9.22412980	     16.87436863	     37.51508078	     45.00000000	     38.53188081	    -25.08687177	  -2241.31234691	  -1195.18905709	    144.80774175	    179.99999979	   2167.32708068	     52.88271524	     21.61189435	     13.18209412	      5.04375667	    -45.00000000	    -45.00000000	     45.00000000	    -27.92919447	   2243.02037432	  -3338.75381802	    134.79703577	   -179.99999979	    365.09838214	   -322.34918420	      9.73655193	    -19.72532617
      7.42000000	     37.13878276	      8.15701268	      9.91154714	    -71.25625673	    769.99460763	      9.08207698	     16.87030733	     37.45191539	     45.00000000	     38.64981313	    -25.06718023	  -2241.22846069	  -1195.27996638	    145.04179983	    179.99999979	   2167.26906729	     52.83167092	     21.73618188	     13.09052586	      4.96519179	    -45.00000000	    -45.00000000	     45.00000000	    -27.95540814	   2243.18126274	  -3338.89692666	    134.76770337	   -179.99999979	    365.07642082	   -322.29485284	      9.62479573	    -19.70338076
      7.43000000	     37.17380589	      7.92821492	      9.69491152	    -71.88563520	    770.00193974	      8.93610878	     16.90473363	     37.60022605	     45.00000000	     38.60882493	    -25.30540233	  -2241.39991162	  -1195.10420266	    144.62801970	    179.99999979	   2167.47926512	     52.82936669	     21.64425475	     13.20041025	      5.02426605	    -45.00000000	    -45.00000000	     45.00000000	    -28.06540732	   2243.15767627	  -3338.59403028	    134.74086756	   -179.99999979	    365.31826859	   -322.21296623	      9.68428939	    -19.81771715
      7.44000000	     37.15228444	      8.24415384	      9.97018975	    -72.57395887	    770.01174668	      8.78701448	     16.91960482	     37.55801798	     45.00000000	     38.71723375	    -25.39554626	  -2241.25079516	  -1195.14509529	    145.04757405	    179.99999979	   2167.31710107	     52.78177403	     21.75196804	     13.07820482	      5.02611502	    -45.00000000	    -45.00000000	     45.00000000	    -28.11051198	   2243.30824075	  -3338.78191734	    134.76143319	   -179.99999979	    365.24257997	   -322.09020919	      9.55748534	    -19.78077611
      7.45000000	     37.26715990	      8.02280861	      9.68962022	    -73.32118683	    770.02895323	      8.63488803	     16.95838271	     37.63008133	     45.00000000	     38.87983339	    -25.64278243	  -2241.42295264	  -1195.11524766	    144.60451389	    179.99999979	   2167.47510889	     52.77809066	     21.70399759	     13.19130314	      5.05941011	    -45.00000000	    -45.00000000	     45.00000000	    -28.21829407	   2243.33023948	  -3338.56621842	    134.60414121	   -179.99999979	    365.46026425	   -321.96057220	      9.58519861	    -19.90271375
      7.46000000	     37.22840254	      8.30673513	     10.03966154	    -74.13050060	    770.05914964	      8.47834288	     16.95773879	     37.66293649	     45.00000000	     38.90296331	    -25.69373859	  -2241.26370349	  -1195.09487289	    145.09815650	    179.99999979	   2167.45503914	     52.70521377	     21.80714730	     13.02551728	      5.05604834	    -45.00000000	    -45.00000000	     45.00000000	    -28.26976630	   2243.50949262	  -3338.76559094	    134.77020463	   -179.99999979	    365.50764842	   -321.82126694	      9.44955641	    -19.89486897
      7.47000000	     37.29139689	      8.33124154	     10.00597889	    -75.00335677	    770.10743998	      8.31663168	     17.04449909	     37.68819245	     45.00000000	     39.00512476	    -26.03736236	  -2241.40359072	  -1195.00010125	    144.87750513	    179.99999979	   2167.56994728	     52.67001994	     21.76242478	     13.07449264	      5.13466001	    -45.00000000	    -45.00000000	     45.00000000	    -28.47070359	   2243.55901054	  -3338.61355509	    134.71940682	   -179.99999979	    365.71925957	   -321.64273451	      9.42483940	    -19.98976881
